<?xml version="1.0" standalone="no"?>
<!DOCTYPE svg PUBLIC "-//W3C//DTD SVG 20010904//EN"
 "http://www.w3.org/TR/2001/REC-SVG-20010904/DTD/svg10.dtd">
<svg version="1.0" xmlns="http://www.w3.org/2000/svg"
 width="1056.000000pt" height="1056.000000pt" viewBox="0 0 1056.000000 1056.000000"
 preserveAspectRatio="xMidYMid meet">
<metadata>
Created by potrace 1.11, written by Peter Selinger 2001-2013
</metadata>
<g transform="translate(0.000000,1056.000000) scale(0.100000,-0.100000)"
fill="#000000" stroke="none">
<path d="M5019 8196 c-2 -2 -53 -7 -114 -10 -111 -7 -149 -10 -240 -21 -91
-10 -139 -16 -190 -25 -27 -5 -66 -12 -85 -14 -40 -7 -84 -14 -120 -21 -14 -3
-36 -8 -50 -10 -37 -7 -57 -12 -139 -30 -40 -9 -78 -18 -85 -19 -28 -6 -72
-18 -86 -23 -17 -7 -26 -9 -60 -16 -26 -6 -183 -54 -210 -64 -8 -4 -17 -7 -20
-8 -69 -21 -121 -39 -190 -66 -47 -18 -87 -34 -90 -34 -42 -8 -363 -171 -479
-243 -199 -125 -413 -309 -514 -442 -23 -30 -45 -57 -48 -60 -30 -26 -160
-259 -217 -390 -49 -112 -141 -413 -157 -515 -2 -11 -11 -60 -20 -110 -10 -49
-19 -103 -20 -120 -2 -16 -4 -30 -5 -30 -2 0 -6 -29 -14 -110 -4 -38 -9 -87
-11 -107 -7 -55 -17 -279 -15 -308 3 -33 3 -49 0 -90 -2 -38 7 -218 15 -290 3
-25 7 -67 10 -95 3 -27 8 -66 11 -86 2 -20 7 -54 9 -75 3 -22 7 -46 10 -54 2
-8 7 -28 9 -45 16 -87 74 -316 98 -385 54 -150 101 -266 145 -355 50 -100 129
-237 160 -275 6 -8 34 -44 60 -80 44 -60 264 -288 323 -335 145 -117 390 -276
505 -330 22 -10 75 -35 118 -56 43 -21 103 -48 135 -60 113 -43 188 -71 232
-85 25 -8 52 -18 60 -21 8 -3 20 -7 25 -8 6 -2 43 -13 84 -25 41 -12 81 -23
90 -26 9 -2 32 -8 51 -13 113 -31 402 -97 505 -115 17 -3 41 -8 55 -10 14 -3
41 -8 60 -10 19 -3 46 -8 60 -11 14 -3 48 -7 75 -10 28 -3 57 -8 65 -10 8 -3
57 -9 108 -15 52 -6 108 -12 125 -15 33 -4 99 -11 202 -20 33 -3 85 -7 115
-10 298 -27 928 -27 1135 0 17 3 51 7 76 9 155 17 434 88 608 156 202 79 417
205 563 330 67 58 230 227 282 294 63 81 166 230 166 240 0 3 15 29 33 58 56
90 193 378 179 378 -4 0 -2 4 3 8 21 15 164 443 189 565 3 12 9 37 15 55 5 17
8 32 6 32 -3 0 0 11 5 25 5 14 12 36 14 48 3 12 14 67 26 122 11 55 23 111 25
125 3 14 7 36 10 50 3 14 8 43 10 65 3 22 7 51 10 65 10 55 26 163 32 225 9
93 11 429 2 500 -11 87 -18 136 -24 155 -2 8 -6 33 -10 55 -8 59 -82 269 -122
350 -77 153 -174 278 -289 370 -27 22 -52 43 -55 47 -3 5 -54 33 -113 63 -105
53 -222 96 -316 116 -25 5 -56 12 -70 15 -61 13 -77 15 -115 19 -22 2 -56 7
-75 9 -32 5 -84 10 -220 22 -25 2 -56 5 -70 7 -57 6 -65 -39 -22 -121 29 -55
70 -104 106 -127 12 -8 64 -17 116 -20 94 -6 118 -8 235 -20 441 -45 672 -200
778 -525 14 -41 28 -91 31 -110 4 -19 9 -45 12 -56 21 -108 27 -427 10 -549
-3 -22 -9 -65 -13 -95 -3 -30 -7 -57 -8 -60 0 -3 -4 -27 -9 -53 -4 -27 -10
-59 -12 -70 -3 -12 -7 -37 -9 -56 -3 -19 -12 -64 -21 -100 -8 -36 -17 -82 -20
-101 -4 -19 -10 -43 -15 -52 -5 -10 -8 -18 -6 -18 3 0 -2 -26 -10 -57 -7 -32
-16 -68 -19 -81 -14 -66 -100 -350 -139 -456 -83 -231 -211 -497 -306 -640
-21 -32 -39 -60 -39 -63 0 -2 -4 -9 -10 -16 -5 -7 -42 -54 -81 -106 -65 -85
-219 -248 -294 -311 -83 -70 -327 -230 -350 -230 -2 0 -36 -15 -77 -34 -75
-35 -263 -102 -308 -110 -14 -2 -52 -11 -85 -19 -73 -19 -209 -43 -290 -53
-33 -3 -69 -8 -80 -10 -129 -24 -704 -24 -1035 0 -68 5 -200 16 -245 21 -22 2
-69 7 -105 10 -36 4 -78 8 -95 11 -48 6 -105 13 -170 20 -33 4 -63 8 -66 10
-4 2 -31 6 -60 9 -30 4 -61 9 -69 11 -8 3 -31 7 -50 10 -19 2 -46 6 -60 9 -14
3 -41 8 -60 11 -19 3 -43 7 -52 10 -10 3 -30 7 -45 10 -16 3 -66 14 -113 25
-47 11 -93 22 -102 24 -58 12 -260 70 -358 101 -63 21 -117 39 -120 39 -7 2
-41 15 -65 25 -11 4 -58 23 -105 41 -173 67 -472 223 -522 272 -7 7 -20 18
-29 23 -77 44 -276 241 -358 354 -122 166 -243 455 -297 705 -12 53 -26 123
-30 147 -2 16 -7 43 -10 60 -3 18 -7 47 -8 63 -2 17 -7 53 -10 80 -7 57 -15
149 -22 250 -5 81 -5 451 0 510 2 22 7 78 11 125 3 46 8 87 10 90 1 3 6 30 9
61 4 31 9 67 12 80 2 13 7 40 10 59 17 107 98 388 139 485 7 17 26 59 41 95
15 36 33 72 39 80 6 8 16 27 22 42 22 50 125 209 186 286 197 250 445 438 785
599 65 31 122 56 127 58 6 1 24 8 40 15 132 55 428 153 560 186 6 1 57 14 115
29 130 32 310 70 385 80 64 9 161 24 195 30 14 2 57 7 95 11 39 4 84 8 100 10
124 12 306 18 515 18 248 -1 321 -5 540 -28 19 -3 60 -7 90 -10 30 -3 69 -8
85 -11 49 -8 88 -14 130 -20 22 -3 63 -10 90 -15 82 -16 119 -22 142 -25 11
-2 29 -6 40 -9 10 -3 32 -8 48 -11 17 -2 39 -7 50 -9 11 -2 54 -11 95 -20 58
-12 348 -85 440 -110 137 -38 350 -127 484 -203 44 -25 84 -49 90 -54 6 -5 43
-33 81 -63 68 -52 102 -89 158 -172 60 -89 130 -130 162 -94 32 36 5 109 -85
228 -54 72 -144 167 -225 237 -49 43 -215 151 -295 192 -119 62 -355 158 -435
177 -5 1 -37 10 -70 20 -33 10 -64 19 -70 20 -5 2 -28 8 -50 14 -22 6 -51 13
-65 15 -14 3 -44 10 -66 16 -23 6 -64 16 -90 22 -51 10 -65 13 -124 23 -19 4
-43 9 -53 12 -11 3 -29 7 -40 9 -19 2 -64 10 -162 29 -11 2 -69 11 -130 20
-60 10 -121 19 -135 22 -27 5 -112 14 -175 19 -22 2 -67 6 -100 10 -33 4 -80
9 -105 11 -58 6 -696 15 -701 10z"/>
<path d="M2425 6042 c-2 -2 -24 -4 -49 -4 -51 0 -61 -8 -52 -43 6 -23 28 -31
134 -51 22 -4 66 -36 95 -70 15 -17 106 -139 202 -270 95 -132 177 -243 182
-249 4 -5 33 -44 63 -85 30 -41 58 -76 62 -78 5 -2 8 -10 8 -17 0 -7 4 -15 8
-17 5 -1 46 -57 93 -123 l84 -119 0 -66 c0 -67 -15 -107 -131 -347 -56 -116
-128 -167 -269 -189 -51 -8 -52 -9 -52 -39 0 -20 6 -27 31 -33 17 -5 32 -6 33
-3 2 3 22 5 45 3 24 -1 75 -2 113 -1 39 0 135 1 215 1 80 1 151 3 158 6 6 2
12 14 12 27 0 19 -11 26 -70 46 -147 48 -148 80 -14 367 25 53 54 115 64 137
10 22 44 94 75 160 32 66 66 140 77 165 10 25 24 57 31 73 7 15 15 27 19 27 5
0 8 6 8 13 0 8 16 46 35 86 19 39 35 73 35 75 0 5 101 220 146 311 43 87 89
154 119 177 23 18 123 48 157 48 25 0 36 49 15 65 -12 8 -90 11 -279 10 -145
-1 -269 -3 -275 -4 -15 -1 -17 -39 -4 -59 4 -8 26 -16 47 -19 73 -8 105 -23
119 -56 24 -57 -8 -145 -196 -545 -27 -57 -49 -106 -49 -108 0 -5 -70 -114
-74 -114 -13 0 -85 84 -240 280 -58 74 -110 140 -115 146 -4 6 -43 57 -85 115
-42 57 -80 109 -84 114 -14 18 -25 49 -29 82 -5 39 15 55 107 79 74 20 79 23
85 52 2 15 -3 26 -16 33 -18 9 -585 20 -594 11z"/>
<path d="M4951 6009 c-12 -12 -31 -40 -41 -63 -10 -22 -29 -67 -44 -98 -14
-31 -26 -62 -26 -67 0 -6 -4 -19 -10 -29 -9 -16 -47 -112 -153 -387 -319 -828
-343 -887 -391 -969 -43 -73 -88 -99 -191 -112 -11 -1 -21 -3 -22 -4 -2 -2 -8
-3 -14 -4 -7 0 -15 -11 -20 -23 -18 -48 -2 -51 303 -51 156 -1 294 1 308 4 20
3 25 11 26 34 2 31 -1 33 -108 64 -99 29 -116 74 -77 209 11 39 22 79 24 87 6
27 245 719 262 760 3 8 7 18 8 23 2 4 4 9 5 12 1 3 3 8 4 13 7 34 93 252 99
252 12 0 47 -83 116 -280 35 -96 66 -184 71 -195 12 -28 88 -247 176 -514 74
-221 91 -299 73 -333 -11 -21 -57 -42 -114 -52 -22 -4 -45 -12 -52 -18 -11 -9
-10 -44 3 -57 5 -5 315 -13 439 -10 42 0 86 0 108 -2 41 -3 125 5 139 12 22
12 20 57 -2 69 -8 4 -35 11 -60 15 -136 22 -170 69 -300 410 -39 105 -83 219
-97 255 -56 144 -143 380 -179 485 -14 44 -31 84 -35 89 -5 6 -9 20 -9 32 0
13 -4 26 -10 29 -5 3 -10 14 -10 24 0 10 -7 32 -16 50 -9 17 -17 37 -18 44 -1
7 -4 17 -8 22 -3 6 -22 62 -43 125 -20 63 -42 121 -47 128 -6 6 -7 12 -3 12 4
0 2 7 -5 15 -17 20 -32 19 -59 -6z"/>
<path d="M9619 5994 c-19 -19 -33 -37 -32 -39 1 -3 -7 -26 -18 -52 -12 -27
-39 -93 -61 -148 -22 -55 -46 -114 -55 -132 -8 -17 -16 -37 -17 -45 -2 -7 -7
-22 -11 -33 -5 -11 -17 -42 -27 -70 -10 -27 -22 -59 -27 -70 -5 -11 -19 -47
-31 -80 -12 -33 -26 -69 -31 -80 -5 -11 -25 -63 -44 -115 -19 -52 -39 -104
-44 -115 -5 -11 -31 -76 -57 -145 -86 -227 -155 -394 -187 -453 -46 -87 -93
-116 -210 -130 -46 -6 -48 -8 -51 -41 -5 -39 16 -45 150 -45 137 0 189 -1 207
-2 6 0 32 0 57 0 25 0 54 1 65 0 136 0 155 5 155 46 0 27 -22 47 -47 44 -50
-7 -151 50 -154 87 -1 8 -2 24 -3 37 -4 45 80 330 130 443 12 28 28 51 36 52
7 0 122 3 254 6 171 3 248 1 264 -7 17 -9 33 -42 62 -122 22 -60 41 -117 44
-125 2 -8 14 -47 28 -86 34 -101 53 -195 46 -224 -7 -31 -57 -58 -123 -66 -39
-6 -48 -11 -53 -30 -13 -51 -9 -52 350 -52 184 1 338 3 343 7 35 23 9 81 -36
81 -44 0 -124 28 -151 53 -23 22 -31 32 -62 90 -7 12 -16 24 -19 27 -3 3 -18
39 -33 80 -16 41 -36 95 -46 120 -57 146 -110 289 -176 470 -41 113 -80 216
-86 230 -5 14 -32 86 -58 160 -142 403 -176 493 -191 501 -12 6 -25 -1 -50
-27z m-30 -351 c5 -10 9 -21 10 -26 0 -4 8 -23 16 -43 8 -20 15 -42 15 -50 0
-7 5 -16 10 -19 6 -3 10 -12 10 -20 0 -8 5 -26 12 -42 6 -15 12 -32 14 -38 2
-5 28 -81 58 -169 31 -87 56 -167 56 -177 0 -13 -7 -19 -22 -20 -99 -4 -396
-5 -406 -1 -19 7 -8 51 45 192 3 8 7 20 8 25 3 10 118 329 137 378 12 31 23
34 37 10z"/>
<path d="M1399 6016 c-17 -15 -215 -21 -741 -21 -333 0 -610 -4 -614 -8 -15
-14 -11 -58 5 -66 9 -5 32 -11 51 -14 146 -24 211 -63 225 -134 10 -54 5
-1133 -5 -1133 -3 0 -5 -33 -6 -73 -2 -194 -27 -231 -184 -262 -41 -8 -86 -16
-100 -18 -21 -3 -26 -10 -28 -40 -3 -34 -1 -36 30 -41 61 -11 950 1 1008 12
30 7 64 13 75 15 31 5 108 27 130 36 11 5 40 17 65 27 172 72 310 228 337 379
33 184 -41 353 -199 456 -178 114 -424 145 -830 104 -35 -4 -38 -2 -46 28 -9
35 -7 435 2 532 11 101 8 100 258 96 340 -5 371 -8 421 -43 34 -25 55 -69 61
-132 8 -70 20 -86 66 -86 66 0 69 9 69 195 0 133 -3 168 -15 180 -15 15 -27
19 -35 11z m-473 -870 c289 -28 460 -222 421 -479 -24 -163 -168 -325 -312
-352 -79 -15 -143 -22 -174 -18 -53 6 -140 32 -170 50 -48 30 -101 86 -112
120 -6 20 -12 151 -13 334 -4 356 -9 339 100 346 38 3 70 6 71 7 4 3 133 -2
189 -8z"/>
<path d="M6278 5980 c-26 -7 -36 -41 -16 -58 8 -6 26 -13 41 -16 15 -3 52 -16
83 -30 76 -35 84 -56 90 -259 3 -89 5 -171 4 -182 -1 -11 -1 -27 -1 -35 0 -8
1 -76 0 -150 0 -74 0 -142 0 -150 1 -15 0 -127 0 -145 0 -5 0 -23 1 -40 0 -16
-1 -125 -3 -241 -4 -200 -5 -213 -30 -266 -32 -71 -81 -106 -166 -118 -33 -5
-64 -11 -68 -13 -15 -9 -14 -64 1 -70 17 -7 684 -8 707 -1 10 3 15 15 15 36
-1 34 -19 46 -74 47 -46 1 -102 39 -135 91 -17 28 -19 72 -21 442 0 167 3 251
10 258 14 14 -3 31 399 -395 26 -27 84 -90 130 -140 199 -217 223 -254 167
-256 -102 -3 -115 -10 -110 -55 l3 -29 330 -2 c182 -1 339 0 350 2 14 3 21 13
23 34 3 35 -11 42 -88 48 -104 7 -149 37 -335 227 -131 132 -409 421 -531 550
-62 66 -114 128 -114 136 0 11 196 209 284 285 31 28 76 68 99 89 54 50 208
173 272 218 46 32 154 87 179 92 62 13 123 28 132 34 22 14 26 50 7 60 -10 5
-152 9 -317 8 l-299 -1 -8 -23 c-15 -41 0 -56 68 -68 34 -6 63 -31 63 -53 0
-36 -42 -89 -196 -244 -140 -140 -344 -336 -438 -421 -35 -31 -66 -42 -76 -26
-4 6 -6 152 -5 323 3 375 5 387 97 416 20 7 49 14 64 17 37 7 53 21 49 42 -2
9 -4 20 -4 23 -1 4 -58 8 -128 9 -334 5 -484 5 -505 0z"/>
</g>
</svg>
